<svg xmlns="http://www.w3.org/2000/svg" height="16" width="16" viewBox="0 0 16 16"><path fill-rule="evenodd" d="M 1.7500114,2 C 2.1642313,2 2.5000228,2.3357915 2.5000228,2.7500114 V 6.2499886 H 7.4999887 V 2.7500114 c 5.654e-4,-0.9994488 1.500588,-0.9994488 1.5000226,0 V 11.75 c -5.654e-4,0.999449 -1.500588,0.999449 -1.5000226,0 V 7.7500114 H 2.5000228 V 11.75 C 2.49974,12.749732 0.99971724,12.749732 1,11.75 V 2.7500114 C 1,2.3357915 1.3357915,2 1.7500114,2 Z"/><path fill-rule="evenodd" d="m 12.558826,12.921567 q 0.323528,0 0.588235,-0.07843 0.27451,-0.08823 0.460783,-0.235294 0.196079,-0.156862 0.303922,-0.35294 0.107847,-0.205883 0.107847,-0.441176 0,-0.294118 -0.127446,-0.490196 -0.117655,-0.205882 -0.333333,-0.323529 -0.215686,-0.117654 -0.519608,-0.166666 -0.303922,-0.04902 -0.656862,-0.04902 H 11.833336 V 10.088233 L 13.480393,8.07843 H 11.000004 V 7 H 15 v 0.892156 l -1.725488,1.970587 h 0.225489 q 0.343138,0 0.666666,0.117654 0.32353,0.117655 0.568627,0.352941 0.254902,0.235295 0.401961,0.588235 0.156862,0.352941 0.156862,0.813724 0,0.558823 -0.235293,0.980392 -0.22549,0.421568 -0.607843,0.715685 -0.372548,0.284314 -0.862745,0.431373 Q 13.098041,14 12.578434,14 12.137258,14 11.696082,13.92157 11.254905,13.84314 10.843141,13.676471 l 0.343138,-1.058826 q 0.08823,0.04902 0.235293,0.09804 0.156863,0.04902 0.343136,0.09804 0.196079,0.04902 0.392158,0.07843 0.205881,0.02941 0.40196,0.02941 z"/></svg>
