<svg xmlns="http://www.w3.org/2000/svg" viewBox="0 0 16 16" height="16" width="16"><path d="M1.75 2a.75.75 0 0 1 .75.75v3.5h5v-3.5c0-1 1.5-1 1.5 0v9c0 1-1.5 1-1.5 0v-4h-5v4c0 1-1.5 1-1.5 0v-9A.75.75 0 0 1 1.75 2z" fill-rule="evenodd"/><path d="M14.992 13.973H10.62v-.95q.117-.099.294-.256l.392-.372q.225-.206.47-.451.245-.245.48-.51.334-.373.58-.677.254-.304.411-.568.167-.275.245-.53.078-.264.078-.539 0-.196-.088-.382-.088-.187-.245-.324-.157-.147-.382-.225-.216-.089-.48-.089-.354 0-.648.108-.284.108-.598.363l-.51-.902q.412-.294.912-.49.51-.206 1.167-.206.422 0 .804.118.392.117.686.353.304.225.48.568.177.343.177.794 0 .314-.059.589-.049.264-.166.539-.108.265-.295.549-.176.284-.431.617-.196.255-.431.52-.226.255-.451.49-.226.236-.451.441-.216.206-.392.344h2.823z"/></svg>