<?xml version="1.0" encoding="UTF-8" standalone="no"?>
<svg
   xmlns:dc="http://purl.org/dc/elements/1.1/"
   xmlns:cc="http://creativecommons.org/ns#"
   xmlns:rdf="http://www.w3.org/1999/02/22-rdf-syntax-ns#"
   xmlns:svg="http://www.w3.org/2000/svg"
   xmlns="http://www.w3.org/2000/svg"
   xmlns:sodipodi="http://sodipodi.sourceforge.net/DTD/sodipodi-0.dtd"
   xmlns:inkscape="http://www.inkscape.org/namespaces/inkscape"
   inkscape:version="1.0 (4035a4f, 2020-05-01)"
   sodipodi:docname="heading6.svg"
   id="svg12"
   version="1.1"
   viewBox="0 0 16 16"
   height="16"
   width="16">
  <metadata
     id="metadata18">
    <rdf:RDF>
      <cc:Work
         rdf:about="">
        <dc:format>image/svg+xml</dc:format>
        <dc:type
           rdf:resource="http://purl.org/dc/dcmitype/StillImage" />
        <dc:title></dc:title>
      </cc:Work>
    </rdf:RDF>
  </metadata>
  <defs
     id="defs16" />
  <sodipodi:namedview
     inkscape:bbox-nodes="true"
     inkscape:snap-bbox="true"
     inkscape:guide-bbox="true"
     showguides="true"
     inkscape:current-layer="svg12"
     inkscape:window-maximized="0"
     inkscape:window-y="23"
     inkscape:window-x="1344"
     inkscape:cy="8"
     inkscape:cx="8.1470585"
     inkscape:zoom="36.208333"
     showgrid="true"
     id="namedview14"
     inkscape:window-height="1035"
     inkscape:window-width="1920"
     inkscape:pageshadow="2"
     inkscape:pageopacity="0"
     guidetolerance="10"
     gridtolerance="10"
     objecttolerance="10"
     borderopacity="1"
     bordercolor="#666666"
     pagecolor="#ffffff">
    <inkscape:grid
       id="grid91"
       type="xygrid" />
  </sodipodi:namedview>
  <path
     sodipodi:nodetypes="ssccccccccccss"
     style="stroke-width:1.00002"
     id="path10"
     d="M 1.7500114,2 C 2.1642313,2 2.5000228,2.3357915 2.5000228,2.7500114 V 6.2499886 H 7.4999887 V 2.7500114 c 5.654e-4,-0.9994488 1.500588,-0.9994488 1.5000226,0 V 11.75 c -5.654e-4,0.999449 -1.500588,0.999449 -1.5000226,0 V 7.7500114 H 2.5000228 V 11.75 C 2.49974,12.749732 0.99971724,12.749732 1,11.75 V 2.7500114 C 1,2.3357915 1.3357915,2 1.7500114,2 Z"
     fill-rule="evenodd" />
  <g
     transform="translate(0.499772)"
     style="font-style:normal;font-variant:normal;font-weight:bold;font-stretch:normal;font-size:9.61539px;line-height:1.25;font-family:'PT Mono';-inkscape-font-specification:'PT Mono, Bold';font-variant-ligatures:normal;font-variant-caps:normal;font-variant-numeric:normal;font-variant-east-asian:normal;opacity:1;fill:#000000;fill-opacity:1;stroke:none;stroke-width:0.240383"
     id="text22-4-4-6"
     aria-label="6">
    <path
       id="path637"
       style="stroke-width:0.240383"
       d="m 15,11.778845 q 0,0.471154 -0.182692,0.875 -0.173077,0.403846 -0.48077,0.701923 -0.307692,0.298078 -0.740385,0.471155 Q 13.173076,14 12.682691,14 q -0.5,0 -0.942308,-0.153847 -0.432693,-0.163461 -0.759616,-0.480769 -0.326923,-0.317308 -0.519231,-0.798078 -0.192308,-0.480769 -0.192308,-1.115385 0,-0.951923 0.326923,-1.7307699 0.336539,-0.7788466 0.85577,-1.3461546 0.519231,-0.5769234 1.163462,-0.9230774 0.644231,-0.3557694 1.278847,-0.4519233 l 0.278846,0.9903851 q -0.509615,0.096154 -0.951923,0.3173079 -0.442308,0.2115386 -0.788462,0.519231 -0.346154,0.3076925 -0.586539,0.6826927 -0.230769,0.3750002 -0.317308,0.7788465 0.192308,-0.240385 0.576924,-0.4038463 0.384615,-0.173077 0.846154,-0.173077 0.432692,0 0.807693,0.1442308 0.375,0.1346155 0.644231,0.4038465 0.278846,0.259615 0.432692,0.644231 Q 15,11.28846 15,11.778845 Z m -1.211539,0.04808 q 0,-0.519231 -0.317308,-0.788462 -0.307692,-0.26923 -0.836539,-0.26923 -0.384616,0 -0.692308,0.173077 -0.307692,0.173077 -0.451923,0.403846 -0.01923,0.105769 -0.02885,0.240385 0,0.125 0,0.201923 0,0.230769 0.07692,0.442308 0.07692,0.211538 0.221154,0.375 0.153846,0.153846 0.365384,0.25 0.211539,0.08654 0.490385,0.08654 0.221154,0 0.432693,-0.07692 0.211538,-0.08654 0.375,-0.23077 0.163462,-0.144231 0.259616,-0.346154 0.105769,-0.211538 0.105769,-0.461539 z" />
  </g>
</svg>
