<svg xmlns="http://www.w3.org/2000/svg" viewBox="0 0 16 16" height="16" width="16"><path d="M1.75 2a.75.75 0 0 1 .75.75v3.5h5v-3.5c0-1 1.5-1 1.5 0v9c0 1-1.5 1-1.5 0v-4h-5v4c0 1-1.5 1-1.5 0v-9A.75.75 0 0 1 1.75 2z" fill-rule="evenodd"/><path d="M15.5 11.779q0 .471-.183.875-.173.404-.48.702-.308.298-.741.47-.423.174-.914.174-.5 0-.942-.154-.433-.163-.76-.48-.326-.318-.519-.799-.192-.48-.192-1.115 0-.952.327-1.73.336-.78.856-1.347.519-.577 1.163-.923.644-.356 1.279-.452l.279.99q-.51.097-.952.318-.442.211-.789.519-.346.308-.586.683-.23.375-.317.778.192-.24.577-.403.384-.173.846-.173.432 0 .807.144.375.134.645.404.278.26.432.644.164.384.164.875zm-1.212.048q0-.52-.317-.789-.308-.269-.837-.269-.384 0-.692.173-.308.173-.452.404-.02.106-.029.24v.202q0 .231.077.443.077.211.221.375.154.154.366.25.211.086.49.086.221 0 .433-.077.211-.086.375-.23.163-.145.26-.347.105-.211.105-.461z"/></svg>