<svg xmlns="http://www.w3.org/2000/svg" viewBox="0 0 16 16" height="16" width="16"><path d="M1.75 2a.75.75 0 0 1 .75.75v3.5h5v-3.5c0-1 1.5-1 1.5 0v9c0 1-1.5 1-1.5 0v-4h-5v4c0 1-1.5 1-1.5 0v-9A.75.75 0 0 1 1.75 2z" fill-rule="evenodd"/><path d="M12.225 12.873q.324 0 .599-.079.274-.078.47-.225.206-.147.314-.363.117-.216.117-.49 0-.54-.43-.843-.422-.314-1.275-.314-.108 0-.255.01-.138 0-.265.01-.147.01-.304.01V7h3.55v1.176h-2.452V9.52q.079 0 .157-.01h.127q.07-.01.118-.01.49 0 .912.147.421.137.735.422.314.284.48.696.177.402.177.892 0 .578-.216 1.02-.215.43-.588.725-.372.294-.863.45-.49.148-1.049.148-.215 0-.46-.049-.246-.04-.48-.098-.236-.069-.442-.147-.196-.079-.333-.147l.411-1.02q.167.098.51.216.353.118.735.118z"/></svg>