<svg xmlns="http://www.w3.org/2000/svg" height="16" width="16" viewBox="0 0 16 16"><path fill-rule="evenodd" d="M1.75 2a.75.75 0 0 1 .75.75v3.5h5v-3.5c0-1 1.5-1 1.5 0v9c0 1-1.5 1-1.5 0v-4h-5v4c0 1-1.5 1-1.5 0v-9A.75.75 0 0 1 1.75 2zm10.809 10.922q.323 0 .588-.079.275-.088.46-.235.197-.157.305-.353.108-.206.108-.441 0-.294-.128-.49-.117-.206-.333-.324-.216-.118-.52-.167-.304-.049-.657-.049h-.549v-.696l1.647-2.01H11V7h4v.892l-1.725 1.97h.225q.343 0 .667.118.323.118.568.353.255.236.402.589.157.353.157.813 0 .56-.235.98-.226.422-.608.716-.373.285-.863.432-.49.137-1.01.137-.44 0-.882-.078-.441-.079-.853-.246l.343-1.058q.089.049.236.098.156.049.343.098.196.049.392.078.206.03.402.03z"/></svg>