<svg xmlns="http://www.w3.org/2000/svg" width="16" height="16" viewBox="0 0 16 16"><path d="M15.011 8v.876h-3.21a3.012 3.012 0 0 1 .582 1.753 3.232 3.232 0 0 1-1.378 2.56A5.022 5.022 0 0 1 8 14.135a5.022 5.022 0 0 1-3.004-.946 3.232 3.232 0 0 1-1.378-2.56h1.753c0 .95 1.204 1.753 2.63 1.753s2.629-.803 2.629-1.753S9.425 8.876 8 8.876H.989V8H5.09q-.048-.034-.095-.07a3.232 3.232 0 0 1-1.377-2.56 3.232 3.232 0 0 1 1.377-2.56A5.022 5.022 0 0 1 8 1.866a5.022 5.022 0 0 1 3.005.946 3.232 3.232 0 0 1 1.377 2.56H10.63c0-.95-1.204-1.753-2.629-1.753S5.37 4.42 5.37 5.37 6.576 7.124 8 7.124A5.055 5.055 0 0 1 10.91 8h4.101z"/></svg>