<svg xmlns="http://www.w3.org/2000/svg" width="16" height="13.5" viewBox="0 0 16 13.5">
  <path id="Path_1" data-name="Path 1" d="M1.75,1A1.75,1.75,0,0,0,0,2.75v4a1.739,1.739,0,0,0,.314,1A1.742,1.742,0,0,0,0,8.75v4A1.751,1.751,0,0,0,1.75,14.5h12.5A1.75,1.75,0,0,0,16,12.75v-4a1.739,1.739,0,0,0-.314-1,1.739,1.739,0,0,0,.314-1v-4A1.75,1.75,0,0,0,14.25,1Zm0,7.5a.25.25,0,0,0-.25.25v4a.25.25,0,0,0,.25.25h12.5a.25.25,0,0,0,.25-.25v-4a.25.25,0,0,0-.25-.25ZM1.5,2.75a.25.25,0,0,1,.25-.25h12.5a.25.25,0,0,1,.25.25v4a.25.25,0,0,1-.25.25H1.75a.25.25,0,0,1-.25-.25Z" transform="translate(0 -1)" fill-rule="evenodd"/>
</svg>
