<svg xmlns="http://www.w3.org/2000/svg" width="16" height="16" viewBox="0 0 16 16"><path fill-rule="evenodd" d="m1.000124,1.874882l0,12.250236l13.999751,0l0,-12.250236l-13.999751,0zm5.249907,7.87486l0,-2.624953l3.499938,0l0,2.624953l-3.499938,0zm3.499938,0.874984l0,2.624953l-3.499938,0l0,-2.624953l3.499938,0zm0,-6.999876l0,2.626769l-3.499938,0l0,-2.626769l3.499938,0zm-4.374922,0l0,2.626769l-3.499484,0l0,-2.626769l3.499938,0l-0.000454,0zm-3.499484,3.499938l3.499938,0l0,2.624953l-3.499938,0l0,-2.624953zm8.749845,0l3.499938,0l0,2.624953l-3.500392,0l0,-2.624953l0.000454,0zm0,-0.874984l0,-2.624953l3.499938,0l0,2.626769l-3.499938,-0.001815zm-8.749845,4.374922l3.499938,0l0,2.624953l-3.499938,0l0,-2.624953zm8.749845,2.624953l0,-2.624953l3.499938,0l0,2.624953l-3.499938,0z" /></svg>
