<svg xmlns="http://www.w3.org/2000/svg" width="16" height="13.5" viewBox="0 0 16 13.5"><path d="M1.75 0A1.75 1.75 0 0 0 0 1.75v4a1.739 1.739 0 0 0 .314 1 1.742 1.742 0 0 0-.314 1v4a1.751 1.751 0 0 0 1.75 1.75h12.5A1.75 1.75 0 0 0 16 11.75v-4a1.739 1.739 0 0 0-.314-1 1.739 1.739 0 0 0 .314-1v-4A1.75 1.75 0 0 0 14.25 0zm0 7.5a.25.25 0 0 0-.25.25v4a.25.25 0 0 0 .25.25h12.5a.25.25 0 0 0 .25-.25v-4a.25.25 0 0 0-.25-.25zM1.5 1.75a.25.25 0 0 1 .25-.25h12.5a.25.25 0 0 1 .25.25v4a.25.25 0 0 1-.25.25H1.75a.25.25 0 0 1-.25-.25z" fill-rule="evenodd"/></svg>