<svg xmlns="http://www.w3.org/2000/svg" height="16" width="16" viewBox="0 0 16 16"><path fill-rule="evenodd" d="M1.75 1A1.75 1.75 0 0 0 0 2.75v4c0 .372.116.717.314 1a1.742 1.742 0 0 0-.314 1v4c0 .966.784 1.75 1.75 1.75h12.5A1.75 1.75 0 0 0 16 12.75v-4c0-.372-.116-.717-.314-1 .198-.283.314-.628.314-1v-4A1.75 1.75 0 0 0 14.25 1H1.75zm-.016 1.5a.25.25 0 0 1 .002 0 .25.25 0 0 1 .014 0h2.97V7H1.75a.25.25 0 0 1-.25-.25v-4a.25.25 0 0 1 .234-.25zm4.647 0h3.287V7H6.381V2.5zm4.947 0h2.922a.25.25 0 0 1 .25.25v4a.25.25 0 0 1-.25.25h-2.922V2.5zm-9.594 6a.25.25 0 0 1 .002 0 .25.25 0 0 1 .014 0h2.97V13H1.75a.25.25 0 0 1-.25-.25v-4a.25.25 0 0 1 .234-.25zm4.647 0h3.287V13H6.381V8.5zm4.947 0h2.922a.25.25 0 0 1 .25.25v4a.25.25 0 0 1-.25.25h-2.922V8.5z"/></svg>