<svg width="16" height="16" viewBox="0 0 16 16" xmlns="http://www.w3.org/2000/svg"><path d="M8 1.219C4.254 1.219 1.219 4.28 1.219 8A6.78 6.78 0 0 0 8 14.781c3.719 0 6.781-3.035 6.781-6.781 0-3.719-3.062-6.781-6.781-6.781Zm0 12.25A5.45 5.45 0 0 1 2.531 8 5.467 5.467 0 0 1 8 2.531c3.008 0 5.469 2.461 5.469 5.469A5.467 5.467 0 0 1 8 13.469Zm0-9.242c-.656 0-1.148.52-1.148 1.148 0 .656.492 1.148 1.148 1.148.629 0 1.148-.492 1.148-1.148 0-.629-.52-1.148-1.148-1.148Zm1.531 6.945v-.656a.353.353 0 0 0-.328-.329h-.328V7.454a.353.353 0 0 0-.328-.328h-1.75a.332.332 0 0 0-.328.328v.656c0 .192.136.329.328.329h.328v1.75h-.328a.333.333 0 0 0-.328.328v.656c0 .191.136.328.328.328h2.406a.332.332 0 0 0 .328-.328Z"/></svg>
