<svg width="16" height="16" viewBox="0 0 16 16" xmlns="http://www.w3.org/2000/svg"><path fill-rule="evenodd" clip-rule="evenodd" d="M7.156 11.51a.549.549 0 0 1-.013.232c-.006.332.002.6.009.828l.005.186c.176-.06.36-.093.553-.093.635 0 1.179.354 1.635.86.364.406.64.508.827.508.186 0 .462-.102.827-.507.456-.507 1-.86 1.634-.86.635 0 1.179.353 1.635.86.19.21.162.526-.061.705a.552.552 0 0 1-.747-.058c-.364-.405-.64-.508-.827-.508-.186 0-.462.103-.827.508-.455.507-1 .86-1.634.86-.635 0-1.179-.353-1.635-.86-.364-.405-.64-.508-.827-.508-.186 0-.462.103-.827.508-.456.507-1 .86-1.634.86-.635 0-1.179-.353-1.635-.86-.364-.405-.64-.508-.827-.508-.186 0-.462.103-.827.508a.552.552 0 0 1-.746.058.48.48 0 0 1-.061-.705c.456-.507 1-.86 1.634-.86.315 0 .607.086.877.236.056-.392.227-.78.492-1.099a.917.917 0 0 1 .111-.169c.11-.203.23-.398.376-.568.416-.486.86-.947 1.305-1.407.4-.414.8-.828 1.178-1.26.12-.252.052-.46-.13-.63-.074-.07-.152-.136-.23-.201-.096-.082-.194-.165-.284-.255C5.43 6.258 5.074 4.94 5.242 3.443a5.939 5.939 0 0 1 .743-2.311.38.38 0 0 1 .04-.096L6.1.973a.109.109 0 0 1 .033-.004c.068 0 .077.056.086.11.004.023.007.046.015.065a.219.219 0 0 1 .004.066l.03.096c.021.075.043.15.07.222.092.268.238.512.43.716.053.055.138.142.205.03.118-.197.212-.117.307-.036l.031.027c.266.215.416.512.56.815a.94.94 0 0 1 .032.077c.03.081.062.165.151.207.027-.028.044-.066.06-.102.028-.064.054-.123.136-.12.11.004.146.094.18.177a2.284 2.284 0 0 1 .215.795.397.397 0 0 1 .029.235c.03.032.036.084.042.136.012.097.023.195.196.162.14-.166.218-.105.246.064.05.27.052.548.006.823.009.163-.027.321-.063.48-.015.067-.03.134-.042.202l-.004.022c-.01.054-.019.103.077.071a.5.5 0 0 1 .183-.147c.214-.198.465-.353.736-.455 0-.003.002-.006.004-.009a.022.022 0 0 1 .017-.009.02.02 0 0 1 .01.002.283.283 0 0 1 .201-.068c.166-.052.284-.061.248.179-.029.193.05.243.245.173.123-.044.246-.093.368-.142.129-.052.257-.103.386-.148.271-.095.548-.133.824-.068.192.045.217.114.068.244-.157.138-.096.196.054.244.126.039.257.04.388.041.08.001.16.002.24.011l.05-.002a.418.418 0 0 1 .236.001.34.34 0 0 1 .222.037c.092.006.183.033.192.132.006.066-.049.09-.103.115-.018.008-.036.016-.051.025a.752.752 0 0 0-.101.089c.12.139.283.147.447.155l.103.007c.111 0 .216-.034.321-.068.073-.023.146-.046.22-.058a.443.443 0 0 0 .122-.05c.08-.04.156-.08.206-.01.066.094-.003.191-.07.285a.964.964 0 0 0-.062.094.069.069 0 0 1-.017.015.023.023 0 0 1-.005.018.024.024 0 0 1-.018.01c-.23.348-.565.57-.919.772l-.007.016h-.018c-.258.199-.54.36-.84.482-.402.235-.834.382-1.276.501a.408.408 0 0 1-.206.042c-.575.154-1.153.175-1.733.15a5.84 5.84 0 0 1-.357-.028c-.344-.034-.688-.068-1.036.073l-.039.026a3.518 3.518 0 0 0-.477.454l-.137.197a.104.104 0 0 1-.055.088c-.189.364-.34.744-.449 1.135l-.091.643v.006Zm7.234-4.592.007.013-.002.002c-.009-.006-.012-.009-.005-.015ZM9.008 5.125l.003.012-.004.001-.002-.002.004.001v-.012Z"/></svg>
