<svg width="16" height="16" viewBox="0 0 16 16" xmlns="http://www.w3.org/2000/svg"><path d="m8 11.5 3.004-3.004 3.003 3.004-3.003 3.004L8 11.5Z"/><path fill-rule="evenodd" clip-rule="evenodd" d="M9.504 2.863v3h3v-3h-3Zm-1 4h5v-5h-5v5Z"/><path fill-rule="evenodd" clip-rule="evenodd" d="M11.004 14.504 8 11.5l2.504-2.504V6.07h1v2.926l2.503 2.504-3.003 3.004ZM9.414 11.5l1.59-1.59 1.59 1.59-1.59 1.59-1.59-1.59ZM6.837 4.999h2.625v-1h-2.57a2.5 2.5 0 1 0-2.974 2.814V9h-2v5h5V9h-2V6.813c.934-.19 1.68-.9 1.919-1.814Zm-3.919-.636a1.5 1.5 0 1 1 3 0 1.5 1.5 0 0 1-3 0Zm0 5.637v3h3v-3h-3Z"/></svg>
