<svg width="16" height="16" viewBox="0 0 16 16" xmlns="http://www.w3.org/2000/svg"><path d="M11.609 2.2H13.4c.22 0 .4.18.4.4v10.8a.4.4 0 0 1-.4.4h-1.791V15H13.4a1.6 1.6 0 0 0 1.6-1.6V2.6A1.6 1.6 0 0 0 13.4 1h-1.791v1.2ZM4.997 2.2V1H2.6A1.6 1.6 0 0 0 1 2.6v10.8A1.6 1.6 0 0 0 2.6 15h2.397v-1.2H2.6a.4.4 0 0 1-.4-.4V2.6c0-.22.18-.4.4-.4h2.397Z"/><path d="M3.511 4.778a.75.75 0 0 1 .75-.75h3.697a.75.75 0 1 1 0 1.5H4.26a.75.75 0 0 1-.75-.75ZM6.595 7.629a.75.75 0 0 1 .75-.75h3.588a.75.75 0 0 1 0 1.5H7.345a.75.75 0 0 1-.75-.75ZM6.595 10.48a.75.75 0 0 1 .75-.75h1.143a.75.75 0 1 1 0 1.5H7.345a.75.75 0 0 1-.75-.75ZM3.511 7.629a.75.75 0 0 1 .75-.75h.983a.75.75 0 1 1 0 1.5h-.983a.75.75 0 0 1-.75-.75ZM3.511 10.48a.75.75 0 0 1 .75-.75h.983a.75.75 0 1 1 0 1.5h-.983a.75.75 0 0 1-.75-.75Z"/></svg>
